<?xml version="1.0" encoding="UTF-8"?>
<svg id="_레이어_1" data-name="레이어 1" xmlns="http://www.w3.org/2000/svg" version="1.1" viewBox="0 0 28 28">
  <defs>
    <style>
      .cls-1 {
        fill: #333;
        stroke-width: 0px;
      }
    </style>
  </defs>
  <path class="cls-1" d="M22,8.2h-12c-.4,0-.8.3-.8.8s.3.8.8.8h12c.4,0,.8-.3.8-.8s-.3-.8-.8-.8Z"/>
  <path class="cls-1" d="M18,12.2h-8c-.4,0-.8.3-.8.8s.3.8.8.8h8c.4,0,.8-.3.8-.8s-.3-.8-.8-.8Z"/>
  <path class="cls-1" d="M25,2.2H8c-1.5,0-2.8,1.2-2.8,2.8v13.2H1c-.4,0-.8.3-.8.8v3c0,2.6,2.1,4.8,4.8,4.8h17c3.2,0,5.8-2.6,5.8-5.8V5c0-1.5-1.2-2.8-2.8-2.8ZM1.8,22v-2.2h15.4c-.4,1.2-.4,2.5,0,3.7.3.7.7,1.3,1.3,1.8H5c-1.8,0-3.2-1.5-3.2-3.2ZM26.2,21c0,2.3-1.9,4.2-4.2,4.2l-1-.3c-1.1-.3-2-1.1-2.5-2.1-.4-1.1-.3-2.3.2-3.2.2-.3.2-.6,0-.9-.2-.3-.5-.5-.8-.5H6.8V5c0-.7.6-1.2,1.2-1.2h17c.7,0,1.2.6,1.2,1.2v16Z"/>
</svg>