<svg width="28" height="28" viewBox="0 0 28 28" fill="none" xmlns="http://www.w3.org/2000/svg"><rect width="28" height="28" fill="none"></rect><path d="M6 5C6 3.89543 6.89543 3 8 3H25C26.1046 3 27 3.89543 27 5V21C27 23.7614 24.7614 26 22 26H8C6.89543 26 6 25.1046 6 24V5Z" fill="#fff" stroke="#5f0080" stroke-width="1.5"></path><path d="M10 9H22" stroke="#5f0080" stroke-width="1.5" stroke-linecap="round"></path><path d="M10 13H18" stroke="#5f0080" stroke-width="1.5" stroke-linecap="round"></path><path d="M10.5 19H16.5" stroke="#5f0080" stroke-width="1.5" stroke-linecap="round"></path><path d="M18.1147 19H1V22C1 24.2091 2.79086 26 5 26H22L20.9008 25.7162C18.0662 24.9843 16.7336 21.7314 18.2399 19.2211C18.2983 19.1238 18.2281 19 18.1147 19Z" fill="#fff" stroke="#5f0080" stroke-width="1.5" stroke-linecap="round" stroke-linejoin="round"></path></svg>