<svg xmlns="http://www.w3.org/2000/svg" width="41" height="40" viewBox="0 0 41 40" fill="none">
  <g clip-path="url(#clip0_46_1225)">
    <path d="M20.5 40C31.5457 40 40.5 31.0457 40.5 20C40.5 8.9543 31.5457 0 20.5 0C9.4543 0 0.5 8.9543 0.5 20C0.5 31.0457 9.4543 40 20.5 40Z" fill="#5F0080"/>
    <path d="M19.6998 28.8C25.4436 28.8 30.0998 24.1438 30.0998 18.4C30.0998 12.6562 25.4436 8 19.6998 8C13.956 8 9.2998 12.6562 9.2998 18.4C9.2998 24.1438 13.956 28.8 19.6998 28.8Z" fill="#5F0080" stroke="white"/>
    <path d="M14.8994 15.2L17.2994 22.4L19.6994 15.2L22.0994 22.4L24.4994 15.2" stroke="white" stroke-linecap="round" stroke-linejoin="round"/>
    <path d="M15.1998 17.5999H13.7998C13.5237 17.5999 13.2998 17.8237 13.2998 18.0999C13.2998 18.376 13.5237 18.5999 13.7998 18.5999H15.1998C15.4759 18.5999 15.6998 18.376 15.6998 18.0999C15.6998 17.8237 15.4759 17.5999 15.1998 17.5999Z" fill="white"/>
    <path d="M25.6002 17.5999H24.2002C23.9241 17.5999 23.7002 17.8237 23.7002 18.0999C23.7002 18.376 23.9241 18.5999 24.2002 18.5999H25.6002C25.8763 18.5999 26.1002 18.376 26.1002 18.0999C26.1002 17.8237 25.8763 17.5999 25.6002 17.5999Z" fill="white"/>
    <path d="M26.9971 25.3657L31.6254 29.9941C31.881 30.2497 31.9616 30.5835 31.8054 30.7397L31.2397 31.3054C31.0835 31.4616 30.7497 31.381 30.494 31.1254L25.8657 26.4971" stroke="white" stroke-linejoin="round"/>
  </g>
  <defs>
    <clipPath id="clip0_46_1225">
      <rect width="40" height="40" fill="white" transform="translate(0.5)"/>
    </clipPath>
  </defs>
</svg>