<?xml version="1.0" encoding="UTF-8"?>
<svg id="_레이어_1" data-name="레이어 1" xmlns="http://www.w3.org/2000/svg" version="1.1" viewBox="0 0 36 36">
  <defs>
    <style>
      .cls-1 {
        stroke-linecap: round;
        stroke-linejoin: round;
      }

      .cls-1, .cls-2 {
        fill: none;
        stroke: #e1e1e1;
        stroke-width: 1.6px;
      }
    </style>
  </defs>
  <g id="Group">
    <path id="Vector" class="cls-2" d="M14.2,26.3c0,1,.4,1.9,1.1,2.7.7.7,1.7,1.1,2.7,1.1s1.9-.4,2.7-1.1c.7-.7,1.1-1.7,1.1-2.7"/>
    <path id="Vector_2" data-name="Vector 2" class="cls-1" d="M29.2,26H6.7h0c0-.2.5-.8,1.3-2l.8-1.2v-7.5c0-5,3.9-9.2,8.7-9.3h.3c5,0,9.1,4.2,9.1,9.3v7.5l1.9,2.7c.2.3.3.4.3.4h0Z"/>
  </g>
</svg>