<?xml version="1.0" encoding="UTF-8"?>
<svg id="_레이어_1" data-name="레이어 1" xmlns="http://www.w3.org/2000/svg" xmlns:xlink="http://www.w3.org/1999/xlink" version="1.1" viewBox="0 0 29 28">
  <defs>
    <style>
      .cls-1 {
        fill: #333;
      }

      .cls-1, .cls-2, .cls-3 {
        stroke-width: 0px;
      }

      .cls-2 {
        fill: none;
      }

      .cls-4 {
        mask: url(#mask);
      }

      .cls-3 {
        fill: #fff;
        fill-rule: evenodd;
      }
    </style>
    <mask id="mask" x="-.8" y="1.5" width="31" height="26" maskUnits="userSpaceOnUse">
      <g id="path-1-inside-1_4225_12593" data-name="path-1-inside-1 4225 12593">
        <path class="cls-3" d="M3.7,3c-1.7,0-3,1.3-3,3v17c0,1.7,1.3,3,3,3h3c1.1,0,2-.9,2-2,0,1.1.9,2,2,2h15c1.7,0,3-1.3,3-3V6c0-1.7-1.3-3-3-3h-15c-1.1,0-2,.9-2,2,0-1.1-.9-2-2-2h-3Z"/>
      </g>
    </mask>
  </defs>
  <rect class="cls-2" x=".7" width="28" height="28"/>
  <g class="cls-4">
    <path class="cls-1" d="M10.2,24c0-.8-.7-1.5-1.5-1.5s-1.5.7-1.5,1.5h3ZM7.2,5c0,.8.7,1.5,1.5,1.5s1.5-.7,1.5-1.5h-3ZM2.2,6c0-.8.7-1.5,1.5-1.5V1.5C1.2,1.5-.8,3.5-.8,6h3ZM2.2,23V6H-.8v17h3ZM3.7,24.5c-.8,0-1.5-.7-1.5-1.5H-.8c0,2.5,2,4.5,4.5,4.5v-3ZM6.7,24.5h-3v3h3v-3ZM7.2,24c0,.3-.2.5-.5.5v3c1.9,0,3.5-1.6,3.5-3.5h-3ZM10.7,24.5c-.3,0-.5-.2-.5-.5h-3c0,1.9,1.6,3.5,3.5,3.5v-3ZM25.7,24.5h-15v3h15v-3ZM27.2,23c0,.8-.7,1.5-1.5,1.5v3c2.5,0,4.5-2,4.5-4.5h-3ZM27.2,6v17h3V6h-3ZM25.7,4.5c.8,0,1.5.7,1.5,1.5h3c0-2.5-2-4.5-4.5-4.5v3ZM10.7,4.5h15V1.5h-15v3ZM10.2,5c0-.3.2-.5.5-.5V1.5c-1.9,0-3.5,1.6-3.5,3.5h3ZM6.7,4.5c.3,0,.5.2.5.5h3c0-1.9-1.6-3.5-3.5-3.5v3ZM3.7,4.5h3V1.5h-3v3Z"/>
  </g>
  <circle class="cls-1" cx="8.7" cy="9.5" r="1"/>
  <circle class="cls-1" cx="8.7" cy="14.5" r="1"/>
  <circle class="cls-1" cx="8.7" cy="19.5" r="1"/>
</svg>