<?xml version="1.0" encoding="UTF-8"?>
<svg id="_레이어_1" data-name="레이어 1" xmlns="http://www.w3.org/2000/svg" version="1.1" viewBox="0 0 29 28">
  <defs>
    <style>
      .cls-1 {
        fill: #333;
      }

      .cls-1, .cls-2 {
        stroke-width: 0px;
      }

      .cls-2 {
        fill: none;
      }
    </style>
  </defs>
  <rect class="cls-2" x=".3" width="28" height="28"/>
  <path class="cls-1" d="M14.3,26.1c-.4,0-.8-.1-1.2-.4l-8.6-7.6-1.9-2C-.1,13.2-.1,8.4,2.7,5.5c1.4-1.4,3.2-2.2,5.2-2.2s3.8.8,5.2,2.2l1.3,1.4,1.3-1.4c1.4-1.4,3.2-2.2,5.2-2.2,2,0,3.8.8,5.2,2.2h0c2.8,2.9,2.8,7.7,0,10.6l-1.8,1.9-8.6,7.6c-.3.3-.7.4-1.2.4ZM7.9,4.8c-1.5,0-3,.6-4.1,1.8-2.3,2.4-2.3,6.2,0,8.6l1.8,1.9,8.5,7.5c0,0,.2,0,.3,0l8.6-7.6,1.8-1.9c2.3-2.4,2.3-6.2,0-8.6h0c-1.1-1.1-2.5-1.8-4.1-1.8-1.5,0-3,.6-4.1,1.8l-2.4,2.5-2.4-2.5c-1.1-1.1-2.5-1.8-4.1-1.8Z"/>
</svg>