<svg xmlns="http://www.w3.org/2000/svg" width="50" height="50" viewBox="0 0 50 50" fill="none">
  <path d="M25 50C38.8071 50 50 38.8071 50 25C50 11.1929 38.8071 0 25 0C11.1929 0 0 11.1929 0 25C0 38.8071 11.1929 50 25 50Z" fill="black" fill-opacity="0.2"/>
  <path d="M22.285 33.699C22.4552 33.8731 22.6831 33.9792 22.926 33.9972C23.1688 34.0153 23.4099 33.9441 23.604 33.797L23.699 33.715L31.699 25.898C31.8712 25.7298 31.9769 25.5051 31.9967 25.2652C32.0166 25.0253 31.9492 24.7862 31.807 24.592L31.727 24.496L24.004 16.314C23.8295 16.1289 23.591 16.0173 23.337 16.0019C23.0831 15.9865 22.8328 16.0684 22.6372 16.231C22.4415 16.3937 22.3152 16.6247 22.284 16.8772C22.2527 17.1297 22.3189 17.3846 22.469 17.59L22.549 17.686L29.598 25.155L22.301 32.285C22.1269 32.4552 22.0208 32.6831 22.0028 32.926C21.9847 33.1688 22.0559 33.4099 22.203 33.604L22.285 33.699Z" fill="white"/>
</svg>