<svg xmlns="http://www.w3.org/2000/svg" width="35" height="34" viewBox="0 0 35 34" fill="none">
  <g clip-path="url(#clip0_42_1267)">
    <mask id="mask0_42_1267" style="mask-type:alpha" maskUnits="userSpaceOnUse" x="0" y="0" width="35" height="34">
      <path fill-rule="evenodd" clip-rule="evenodd" d="M17.324 0.019043C7.94044 0.019043 0.333496 7.62599 0.333496 17.0097C0.333496 26.3931 7.94044 34 17.324 34C26.7075 34 34.3143 26.3931 34.3143 17.0097C34.3143 7.62599 26.7075 0.019043 17.324 0.019043Z" fill="white"/>
    </mask>
    <g mask="url(#mask0_42_1267)">
      <path fill-rule="evenodd" clip-rule="evenodd" d="M17.324 0.019043C7.94044 0.019043 0.333496 7.62599 0.333496 17.0097C0.333496 26.3931 7.94044 34 17.324 34C26.7075 34 34.3143 26.3931 34.3143 17.0097C34.3143 7.62599 26.7075 0.019043 17.324 0.019043Z" fill="url(#paint0_radial_42_1267)"/>
    </g>
    <path fill-rule="evenodd" clip-rule="evenodd" d="M14.5495 25.8262C14.3674 25.9468 14.1606 25.961 13.9272 25.9597C13.9713 25.7546 14.0076 25.5749 14.0509 25.3971C14.059 25.364 14.0667 25.313 14.1197 25.313C14.281 25.313 14.4238 25.315 14.5717 25.369C14.7246 25.4247 14.7162 25.7158 14.5495 25.8262ZM14.2314 26.8893C14.2711 27.0478 14.2913 27.2113 14.3152 27.3732C14.3298 27.4728 14.3812 27.5141 14.4809 27.5111C14.614 27.5072 14.7473 27.5113 14.8804 27.51C15.0616 27.5083 15.0883 27.4779 15.0438 27.2962C14.965 26.9751 14.9176 26.5814 14.7378 26.3337C14.7716 26.3165 14.8903 26.2722 14.9526 26.2388C15.2832 26.0617 15.4467 25.7436 15.3933 25.3836C15.3472 25.0739 15.1458 24.8623 14.7587 24.8142C14.3746 24.7665 13.9833 24.7725 13.595 24.7683C13.5716 24.7679 13.5231 24.7667 13.4958 24.7894C13.4658 24.814 13.4577 24.8637 13.4518 24.8903C13.2697 25.7098 13.0967 26.5312 12.9218 27.3521C12.8995 27.4566 12.9421 27.5095 13.0487 27.5099C13.1717 27.5103 13.295 27.5045 13.4175 27.5119C13.5408 27.5195 13.6037 27.4779 13.6267 27.3488C13.6707 27.102 13.7265 26.8572 13.787 26.6139C13.8002 26.5614 13.8126 26.4703 13.8463 26.4716C13.8463 26.4716 13.995 26.4584 14.0333 26.4635C14.0719 26.4686 14.168 26.636 14.2314 26.8893Z" fill="#C3C3C3"/>
    <path fill-rule="evenodd" clip-rule="evenodd" d="M11.5718 26.1886C11.6347 25.9045 11.6946 25.633 11.7562 25.3618C11.7603 25.3437 11.7781 25.3137 11.7881 25.3141C11.9286 25.3216 12.0786 25.307 12.2046 25.355C12.267 25.3788 12.318 25.5199 12.3172 25.6074C12.3142 25.9754 12.0053 26.222 11.5718 26.1886ZM12.4299 24.8178C12.2147 24.7762 11.7734 24.7565 11.773 24.7608C11.6193 24.7608 11.4656 24.7614 11.3118 24.7606C11.2171 24.76 11.1583 24.7989 11.1379 24.8966C10.9653 25.7136 10.7917 26.53 10.6172 27.3467C10.5926 27.4617 10.6398 27.511 10.7526 27.5105C10.8806 27.5097 11.009 27.5067 11.1369 27.5118C11.2416 27.5159 11.2971 27.4766 11.3166 27.3697C11.3469 27.2035 11.3963 27.0405 11.4226 26.874C11.4319 26.8146 11.4416 26.768 11.4723 26.7431C11.503 26.7182 11.5544 26.715 11.6126 26.7069C11.8596 26.6729 12.1129 26.6392 12.3461 26.5563C12.7929 26.3975 13.0207 26.0591 13.0331 25.5825C13.0441 25.1645 12.8413 24.8974 12.4299 24.8178Z" fill="#C3C3C3"/>
    <path fill-rule="evenodd" clip-rule="evenodd" d="M18.4445 25.1837C18.6831 24.6816 18.5314 24.7725 19.1026 24.7622C19.1382 24.7615 19.1742 24.7609 19.2098 24.7633C19.3679 24.7738 19.4067 24.8329 19.3341 24.9692C18.9005 25.782 18.4663 26.5944 18.0259 27.4034C17.9982 27.4539 17.9189 27.5003 17.8602 27.5052C17.6975 27.519 17.5329 27.5085 17.3691 27.5106C17.2666 27.5117 17.2265 27.4628 17.2159 27.3627C17.1298 26.5588 17.0415 25.7552 16.9499 24.9519C16.9345 24.8171 16.9852 24.7598 17.1168 24.7614C17.2497 24.7631 17.383 24.7652 17.516 24.7614C17.6558 24.7571 17.7018 24.824 17.704 24.9585L17.7385 26.6903L18.4445 25.1837Z" fill="#C3C3C3"/>
    <path fill-rule="evenodd" clip-rule="evenodd" d="M9.64779 26.2361C9.4932 26.2915 9.1513 26.3227 9.14319 26.3057C9.19753 26.1152 9.28778 25.9468 9.48797 25.8745C9.59203 25.8368 9.71547 25.8147 9.78061 25.9484C9.8286 26.0467 9.7706 26.1922 9.64779 26.2361ZM10.0401 25.4107C9.80651 25.3297 9.56725 25.3306 9.32909 25.3896C8.60985 25.5677 8.3353 26.2858 8.40838 26.8808C8.45191 27.2346 8.66641 27.4669 9.02198 27.5097C9.26649 27.539 9.5226 27.5303 9.76647 27.4922C10.1155 27.4375 10.1127 27.4194 10.1748 27.0713C10.2125 26.8608 10.1773 26.8386 9.97222 26.8892C9.76044 26.9415 9.54357 26.9771 9.32686 27.003C9.2212 27.0157 9.12349 26.9734 9.10602 26.8165C9.171 26.8117 9.22645 26.8085 9.28174 26.8034C9.59345 26.7756 9.90613 26.7475 10.1786 26.5716C10.4177 26.4174 10.5121 26.1903 10.4789 25.9123C10.4473 25.6482 10.2797 25.4938 10.0401 25.4107Z" fill="#C3C3C3"/>
    <path fill-rule="evenodd" clip-rule="evenodd" d="M24.1182 27.3587C24.1021 27.5094 24.169 27.5098 24.4369 27.5081C24.716 27.5063 24.77 27.5361 24.8028 27.4003L25.0004 26.4226L26.134 24.9861C26.1664 24.9435 26.1979 24.8804 26.1852 24.834C26.1669 24.767 26.0871 24.7728 26.0871 24.7728H25.5438C25.4515 24.7728 25.4424 24.8087 25.4424 24.8087C25.3156 24.9786 24.8088 25.7541 24.7675 25.8081C24.7451 25.7283 24.6059 25.1764 24.563 24.9505C24.5441 24.8516 24.5041 24.7962 24.4316 24.7766C24.4035 24.769 23.9121 24.7738 23.887 24.7781C23.7818 24.7956 23.7708 24.8513 23.8206 24.9951L24.3161 26.3918L24.1182 27.3587Z" fill="#C3C3C3"/>
    <path fill-rule="evenodd" clip-rule="evenodd" d="M23.2389 26.9945C23.2369 26.91 23.1883 26.8871 23.0742 26.9093C22.9237 26.9384 22.7749 26.9821 22.6231 26.9969C22.3432 27.0239 22.2386 26.9251 22.2315 26.6411C22.2224 26.2799 22.316 25.9408 22.4854 25.6248C22.6565 25.3055 22.9299 25.2003 23.2752 25.3066C23.5928 25.4043 23.5896 25.4036 23.6625 25.07C23.6862 24.9612 23.6565 24.9008 23.5557 24.8525C23.4428 24.7982 23.2958 24.7259 23.0122 24.7097C22.4655 24.7097 22.1708 24.9159 21.9126 25.3091C21.6427 25.7203 21.5224 26.1772 21.534 26.6634C21.5475 27.2412 21.8708 27.542 22.4515 27.5433C22.5535 27.5436 22.6559 27.5321 22.7571 27.5191C23.1047 27.4745 23.1509 27.4656 23.2054 27.205C23.2132 27.1678 23.2394 27.0137 23.2389 26.9945Z" fill="#C3C3C3"/>
    <path fill-rule="evenodd" clip-rule="evenodd" d="M16.5835 24.7628C16.4658 24.7606 16.3477 24.7667 16.2303 24.7597C16.0913 24.7514 16.0333 24.8123 16.0053 24.9481C15.8552 25.6797 15.6971 26.4098 15.5402 27.1401C15.5276 27.1981 15.5171 27.2471 15.5096 27.2882C15.5058 27.3087 15.5028 27.3276 15.5009 27.3445C15.4987 27.3615 15.4976 27.3767 15.4976 27.3904C15.4966 27.5108 15.5775 27.5105 15.8388 27.5102C15.9054 27.5102 15.972 27.5079 16.0384 27.5108C16.1294 27.5145 16.1796 27.4766 16.1993 27.3847C16.3733 26.569 16.5489 25.7538 16.7257 24.9387C16.7522 24.8161 16.6993 24.7649 16.5835 24.7628Z" fill="#C3C3C3"/>
    <path fill-rule="evenodd" clip-rule="evenodd" d="M19.9989 26.4365L20.4565 25.51L20.4987 26.4365H19.9989ZM21.2728 27.3055C21.2563 27.1323 21.2323 26.96 21.2113 26.7874C21.1368 26.1729 21.0596 25.5588 20.9893 24.9436C20.9739 24.8073 20.9094 24.7573 20.779 24.7624C20.6511 24.7671 20.5227 24.7695 20.3951 24.7611C20.2555 24.752 20.1719 24.8038 20.1039 24.9311C19.6897 25.7077 19.2669 26.4797 18.8475 27.2536L18.7879 27.3513C18.7264 27.5076 18.8475 27.5095 18.8475 27.5095H19.3799C19.5003 27.5095 19.5158 27.4425 19.5158 27.4425L19.7491 26.9735H20.4743C20.5588 26.9735 20.5513 27.0041 20.5513 27.0041C20.5513 27.0041 20.5486 27.1811 20.5588 27.3502C20.5693 27.5194 20.6487 27.5095 20.6487 27.5095H21.0864C21.2739 27.5078 21.2904 27.4928 21.2728 27.3055Z" fill="#C3C3C3"/>
    <path fill-rule="evenodd" clip-rule="evenodd" d="M20.0795 29.317C20.1256 29.3262 20.1748 29.3324 20.2484 29.3324C20.5161 29.3324 20.6915 29.1602 20.6915 28.9541C20.6915 28.7541 20.5468 28.6896 20.3747 28.6896C20.2916 28.6896 20.2331 28.6956 20.1961 28.7048L20.0795 29.317ZM19.821 28.3912C19.9532 28.3574 20.1623 28.3358 20.3623 28.3358C20.5468 28.3358 20.7622 28.3666 20.9128 28.4741C21.0512 28.5696 21.1373 28.714 21.1373 28.9141C21.1373 29.1754 21.0174 29.3724 20.8545 29.4984C20.6853 29.6308 20.4454 29.6891 20.1933 29.6891C20.1194 29.6891 20.0577 29.683 20.0117 29.6768L19.8703 30.4242H19.4365L19.821 28.3912Z" fill="white"/>
    <path fill-rule="evenodd" clip-rule="evenodd" d="M21.5344 28.3512H21.9772L21.6574 30.0367H22.454L22.3802 30.4242H21.1406L21.5344 28.3512Z" fill="white"/>
    <path fill-rule="evenodd" clip-rule="evenodd" d="M23.4714 28.3512L23.2437 29.5447C23.2285 29.6154 23.2223 29.6983 23.2223 29.7908C23.2223 29.9566 23.3238 30.086 23.5237 30.086C23.7542 30.086 23.9082 29.9322 23.9821 29.5477L24.2096 28.3512H24.6525L24.428 29.5292C24.3081 30.1567 24.0311 30.4582 23.4682 30.4582C23.0409 30.4582 22.7793 30.2397 22.7793 29.7968C22.7793 29.7075 22.7917 29.606 22.8102 29.5076L23.0286 28.3512H23.4714Z" fill="white"/>
    <path fill-rule="evenodd" clip-rule="evenodd" d="M24.7355 29.9445C24.8585 30.0183 25.0339 30.0766 25.2245 30.0766C25.3967 30.0766 25.5536 29.9967 25.5536 29.8337C25.5536 29.7168 25.4644 29.6399 25.2738 29.5415C25.0523 29.4216 24.8432 29.2616 24.8432 28.9909C24.8432 28.5725 25.2091 28.3174 25.6613 28.3174C25.9134 28.3174 26.0612 28.3727 26.1503 28.4219L26.0119 28.791C25.9442 28.7541 25.7968 28.6957 25.6246 28.6987C25.4184 28.6987 25.3106 28.8032 25.3106 28.9171C25.3106 29.0371 25.4368 29.111 25.6122 29.2093C25.8642 29.3415 26.0242 29.5109 26.0242 29.7568C26.0242 30.2182 25.6428 30.4551 25.1816 30.4551C24.8923 30.4551 24.6862 30.3812 24.5879 30.3073L24.7355 29.9445Z" fill="white"/>
    <path fill-rule="evenodd" clip-rule="evenodd" d="M30.1739 19.7126C29.9715 19.1027 29.5248 18.8412 28.8443 18.9351C28.8241 18.9379 28.8065 18.9408 28.7942 18.9416C28.4898 18.9544 28.183 19.1794 27.6513 19.668C27.0151 17.7282 26.2185 15.5201 25.6696 14.7739C24.8714 13.6887 23.9977 13.1295 23.2356 12.8481C24.5616 12.1246 25.4611 10.7179 25.4611 9.10097C25.4611 6.74496 23.5511 4.83508 21.1951 4.83508C18.8392 4.83508 16.9293 6.74496 16.9293 9.10097C16.9293 10.736 17.8496 12.1556 19.1999 12.8716C18.462 13.1601 17.5927 13.7177 16.7209 14.7739C16.0603 15.5741 15.1917 18.2506 14.5846 20.3341C14.2901 20.2974 13.9993 20.252 13.7129 20.1988C14.4752 17.8734 15.2479 15.6442 15.6097 14.9896C16.4491 13.4709 17.5842 12.7434 17.5842 12.7434C14.6836 9.4513 16.8312 6.44516 17.255 5.91514C16.9937 5.86096 16.7228 5.83236 16.4452 5.83236C14.2483 5.83236 12.4674 7.61339 12.4674 9.8102C12.4674 11.3348 13.3255 12.6584 14.5846 13.3262C13.8967 13.5952 13.0861 14.1152 12.2731 15.0999C11.7572 15.7246 11.106 17.5755 10.5753 19.3016C10.2992 19.1956 10.0339 19.0866 9.77886 18.9764C10.2004 17.7324 10.6031 16.5938 10.8694 15.9569C11.6848 14.0065 12.9957 13.2871 12.9957 13.2871C12.9957 13.2871 10.0828 10.4506 12.5961 6.82122C12.2947 6.74464 11.979 6.70365 11.6539 6.70365C9.54658 6.70365 7.83832 8.41191 7.83832 10.5191C7.83832 11.9816 8.66147 13.2512 9.86927 13.8916C9.20928 14.1496 8.50434 14.6484 7.72456 15.5931C7.45431 15.9203 7.14005 16.5989 6.82468 17.4168C6.55411 17.2436 6.40285 17.1353 6.39491 17.1296C6.1952 16.9845 5.91526 17.0285 5.76972 17.2285C5.62435 17.4284 5.66852 17.7084 5.86839 17.8537C6.05221 17.9877 10.4333 21.1338 15.7516 21.3286C20.8795 21.516 23.3738 19.9752 24.5722 19.2347L24.74 19.1316C24.8173 19.0842 25.0792 18.9376 25.195 19.035C25.3145 19.1359 25.3958 19.488 25.2376 19.8871C25.0001 20.4857 24.2656 21.2061 23.7214 21.5302C23.3779 21.735 23.1289 22.1972 23.3258 22.587C23.7011 23.3306 24.9834 22.7925 25.4049 22.6155C26.1813 22.2895 27.0443 21.4716 27.8059 20.7501C28.1795 20.3959 28.6879 19.9142 28.8686 19.8337C28.8975 19.8311 28.9307 19.827 28.9671 19.8219C29.2146 19.7876 29.2583 19.7967 29.3239 19.9945C29.4261 20.3019 30.2087 23.0878 26.3419 26.2184C26.1497 26.3741 26.12 26.6559 26.2755 26.848C26.3642 26.9573 26.4934 27.014 26.6238 27.014C26.7226 27.014 26.8224 26.9815 26.9052 26.9143C30.1971 24.2492 30.7233 21.3692 30.1739 19.7126Z" fill="white"/>
  </g>
  <defs>
    <radialGradient id="paint0_radial_42_1267" cx="0" cy="0" r="1" gradientUnits="userSpaceOnUse" gradientTransform="translate(11.4441 4.21135) scale(31.0439 31.044)">
      <stop stop-color="#BCBCBA"/>
      <stop offset="1" stop-color="#676766"/>
    </radialGradient>
    <clipPath id="clip0_42_1267">
      <rect width="34" height="34" fill="white" transform="translate(0.333496)"/>
    </clipPath>
  </defs>
</svg>