 <svg
            xmlns="http://www.w3.org/2000/svg"
            width="19"
            height="19"
            viewBox="0 0 19 19"
            fill="none">
            <path
              d="M18.0811 18.081L13.9611 13.961M8.4671 15.334C9.36888 15.334 10.2618 15.1564 11.095 14.8113C11.9281 14.4662 12.6851 13.9604 13.3228 13.3227C13.9605 12.685 14.4663 11.928 14.8114 11.0949C15.1565 10.2617 15.3341 9.36879 15.3341 8.467C15.3341 7.56522 15.1565 6.67226 14.8114 5.83912C14.4663 5.00598 13.9605 4.24896 13.3228 3.6113C12.6851 2.97364 11.9281 2.46782 11.095 2.12272C10.2618 1.77763 9.36888 1.60001 8.4671 1.60001C6.64585 1.60001 4.89921 2.32349 3.61139 3.6113C2.32358 4.89912 1.6001 6.64576 1.6001 8.467C1.6001 10.2882 2.32358 12.0349 3.61139 13.3227C4.89921 14.6105 6.64585 15.334 8.4671 15.334V15.334Z"
              stroke="#5F0080"
              stroke-width="1.7"
              stroke-linecap="round" />
          </svg>