<svg width="30" height="30" viewBox="0 0 30 30" fill="none" xmlns="http://www.w3.org/2000/svg">
<g clip-path="url(#clip0_8034_1558)">
<path fill-rule="evenodd" clip-rule="evenodd" d="M14.627 25.255C16.6496 25.2547 18.5893 24.4511 20.0195 23.0208C21.4496 21.5904 22.253 19.6506 22.253 17.628C22.253 14.82 19.711 10.444 14.627 4.5C9.542 10.444 7 14.82 7 17.628C7 19.6508 7.80356 21.5908 9.2339 23.0211C10.6642 24.4514 12.6042 25.255 14.627 25.255V25.255Z" stroke="#5EC49E" stroke-width="1.5" stroke-linejoin="round"/>
<path d="M14.627 20.66C15.1277 20.66 15.6235 20.5614 16.0861 20.3697C16.5487 20.1781 16.9691 19.8973 17.3232 19.5432C17.6772 19.1891 17.9581 18.7688 18.1497 18.3062C18.3413 17.8435 18.44 17.3477 18.44 16.847" stroke="#5EC49E" stroke-width="1.5" stroke-linecap="round"/>
</g>
<defs>
<clipPath id="clip0_8034_1558">
<rect width="30" height="30" fill="white"/>
</clipPath>
</defs>
</svg>
