<svg width="26" height="27" viewBox="0 0 26 27" fill="none" xmlns="http://www.w3.org/2000/svg">
<g id="Group">
<path id="Vector" d="M9.24902 21.875C9.24902 22.8695 9.64407 23.8232 10.3473 24.5264C11.0505 25.2296 12.0042 25.6246 12.9986 25.6246C13.9931 25.6246 14.9468 25.2296 15.65 24.5264C16.3532 23.8232 16.7483 22.8695 16.7483 21.875" stroke="#E1E1E1" stroke-width="1.6"/>
<path id="Vector_2" fill-rule="evenodd" clip-rule="evenodd" d="M24.2477 21.5803H1.75L1.76463 21.5465C1.85013 21.3946 2.2945 20.7545 3.09887 19.6239L3.94262 18.4426V10.9783C3.94262 5.93262 7.81037 1.82075 12.6512 1.63175L13 1.625C18.0018 1.625 22.0562 5.81225 22.0562 10.9783V18.4415L23.9766 21.1539C24.1712 21.4385 24.2624 21.5814 24.2489 21.5814L24.2477 21.5803Z" stroke="#E1E1E1" stroke-width="1.6" stroke-linecap="round" stroke-linejoin="round"/>
</g>
</svg>
