<svg width="30" height="30" viewBox="0 0 30 30" fill="none" xmlns="http://www.w3.org/2000/svg">
<path d="M15.0435 4C15.2249 3.99977 15.4003 4.06529 15.5371 4.18444C15.6739 4.30359 15.7628 4.46828 15.7875 4.648L15.7935 4.75V7.439L17.5135 5.719C17.6407 5.59187 17.8093 5.51466 17.9886 5.50145C18.168 5.48823 18.3461 5.53989 18.4905 5.647L18.5745 5.72C18.7014 5.84711 18.7784 6.01553 18.7916 6.19464C18.8049 6.37374 18.7534 6.55165 18.6465 6.696L18.5745 6.78L15.7945 9.56L15.7935 13.95L19.5955 11.756L20.6135 7.958C20.662 7.77457 20.7782 7.61633 20.9387 7.51515C21.0992 7.41398 21.2921 7.3774 21.4785 7.41278C21.6649 7.44816 21.8309 7.55287 21.9432 7.70581C22.0555 7.85875 22.1056 8.04856 22.0835 8.237L22.0635 8.346L21.4335 10.696L23.7625 9.35C23.9273 9.25429 24.1222 9.22487 24.3079 9.2677C24.4935 9.31054 24.6559 9.42242 24.7621 9.58063C24.8682 9.73884 24.9102 9.93152 24.8794 10.1195C24.8487 10.3076 24.7475 10.4768 24.5965 10.593L24.5125 10.65L22.1845 11.994L24.5325 12.624C24.7058 12.6707 24.8566 12.778 24.9576 12.9265C25.0585 13.0749 25.1028 13.2547 25.0825 13.433L25.0625 13.543C25.0158 13.7165 24.9083 13.8675 24.7596 13.9684C24.611 14.0693 24.431 14.1136 24.2525 14.093L24.1445 14.073L20.3465 13.055L16.5435 15.249L20.3455 17.445L24.1445 16.427C24.3278 16.3767 24.5234 16.3979 24.6917 16.4863C24.86 16.5747 24.9884 16.7237 25.051 16.9032C25.1137 17.0827 25.1058 17.2793 25.029 17.4532C24.9523 17.6271 24.8123 17.7653 24.6375 17.84L24.5325 17.876L22.1825 18.506L24.5125 19.85C24.6778 19.9448 24.8009 20.0989 24.8566 20.281C24.9124 20.4632 24.8968 20.6598 24.8129 20.8309C24.7291 21.0019 24.5832 21.1347 24.405 21.2021C24.2268 21.2696 24.0296 21.2667 23.8535 21.194L23.7625 21.15L21.4345 19.806L22.0625 22.154C22.1091 22.3275 22.0918 22.512 22.0138 22.6739C21.9358 22.8358 21.8023 22.9643 21.6375 23.036L21.5325 23.073C21.3588 23.1195 21.1743 23.1021 21.0124 23.0239C20.8505 22.9457 20.7221 22.8119 20.6505 22.647L20.6135 22.542L19.5965 18.745L15.7935 16.548V20.939L18.5735 23.719C18.7081 23.8527 18.787 24.0323 18.7944 24.2218C18.8018 24.4113 18.7371 24.5966 18.6134 24.7403C18.4897 24.8841 18.3161 24.9756 18.1276 24.9965C17.9391 25.0174 17.7497 24.9661 17.5975 24.853L17.5135 24.78L15.7935 23.06V25.75C15.7935 25.94 15.7213 26.1229 15.5915 26.2618C15.4618 26.4006 15.2842 26.4851 15.0946 26.498C14.9051 26.511 14.7176 26.4515 14.5702 26.3316C14.4228 26.2117 14.3264 26.0402 14.3005 25.852L14.2935 25.75V23.062L12.5735 24.78C12.4465 24.907 12.2782 24.9842 12.0991 24.9976C11.92 25.011 11.742 24.9597 11.5975 24.853L11.5135 24.78C11.3865 24.653 11.3093 24.4847 11.2959 24.3055C11.2825 24.1264 11.3338 23.9485 11.4405 23.804L11.5135 23.72L14.2935 20.94V16.549L10.4925 18.744L9.47452 22.542C9.42604 22.7254 9.30985 22.8837 9.14934 22.9848C8.98884 23.086 8.79596 23.1226 8.60956 23.0872C8.42316 23.0518 8.25709 22.9471 8.14482 22.7942C8.03255 22.6412 7.98241 22.4514 8.00452 22.263L8.02451 22.154L8.65451 19.804L6.32552 21.15C6.16074 21.2472 5.96505 21.2777 5.77849 21.2354C5.59193 21.193 5.4286 21.081 5.32193 20.9222C5.21525 20.7634 5.17329 20.5698 5.20463 20.3811C5.23597 20.1924 5.33824 20.0228 5.49052 19.907L5.57552 19.85L7.90351 18.506L5.55552 17.876C5.38201 17.8295 5.23097 17.7222 5.12985 17.5738C5.02873 17.4253 4.98426 17.2455 5.00452 17.067L5.02452 16.957C5.07125 16.7835 5.17873 16.6325 5.32739 16.5316C5.47605 16.4307 5.65601 16.3864 5.83452 16.407L5.94452 16.427L9.74151 17.445L13.5435 15.25L9.74252 13.055L5.94351 14.073C5.76019 14.1233 5.56462 14.1021 5.39633 14.0137C5.22804 13.9253 5.0996 13.7763 5.03698 13.5968C4.97436 13.4173 4.98223 13.2207 5.059 13.0468C5.13576 12.8729 5.2757 12.7347 5.45052 12.66L5.55552 12.624L7.90552 11.994L5.57552 10.65C5.41022 10.5552 5.28718 10.4011 5.23138 10.219C5.17559 10.0368 5.19122 9.8402 5.2751 9.66913C5.35898 9.49806 5.50482 9.36533 5.68301 9.29789C5.8612 9.23044 6.05839 9.23334 6.23452 9.306L6.32552 9.35L8.65352 10.694L8.02552 8.346C7.97895 8.17245 7.99625 7.98796 8.07425 7.82609C8.15225 7.66422 8.28577 7.53573 8.45052 7.464L8.55551 7.427C8.72918 7.38051 8.91377 7.39794 9.07566 7.47614C9.23755 7.55433 9.36596 7.68807 9.43751 7.853L9.47452 7.958L10.4915 11.755L14.2935 13.951V9.561L11.5135 6.781C11.3776 6.64756 11.2976 6.4674 11.2896 6.2771C11.2817 6.0868 11.3464 5.9006 11.4708 5.7563C11.5951 5.612 11.7697 5.5204 11.959 5.50011C12.1484 5.47981 12.3384 5.53233 12.4905 5.647L12.5745 5.72L14.2945 7.439V4.75C14.2945 4.55109 14.3735 4.36032 14.5142 4.21967C14.6548 4.07902 14.8456 4 15.0445 4H15.0435Z" fill="#6FAFF3"/>
</svg>
